<svg version="1.2" xmlns="http://www.w3.org/2000/svg" xmlns:xlink="http://www.w3.org/1999/xlink" overflow="visible" preserveAspectRatio="none" viewBox="0 0 24 14" width="24" height="14"><g transform="translate(0, 0)"><defs><path id="path-16113717725834537" d="M23.83714282675946 0.3607081842918412 C23.506339712749543 -5.450223152358602e-7 22.96880480963915 -5.450223152358602e-7 22.63803394707839 0.3607081842918412 C22.63803394707839 0.3607081842918412 12.094293434115132 11.880854834606106 12.094293434115132 11.880854834606106 C12.094293434115132 11.880854834606106 1.529876517096912 0.3607081842918412 1.529876517096912 0.3607081842918412 C1.1990927539564895 -5.450223152358602e-7 0.6615675262808451 -5.450223152358602e-7 0.33078376314042257 0.3607081842918412 C-4.998071579195419e-7 0.7214163685836824 -4.998071579195419e-7 1.3075689265120811 0.33078376314042257 1.6682771108039223 C0.33078376314042257 1.6682771108039223 11.47406581536455 13.819656049812282 11.47406581536455 13.819656049812282 C11.639451246644931 14.000003108141573 11.846215287194564 14.090176637306223 12.073620255205084 14.090176637306223 C12.280352044305562 14.090176637306223 12.50775701231608 14.000003108141573 12.673174695045617 13.819656049812282 C12.673174695045617 13.819656049812282 23.81646964784941 1.6682771108039223 23.81646964784941 1.6682771108039223 C24.167913689320223 1.3075689265120811 24.167913689320223 0.7214163685836824 23.83714282675946 0.3607081842918412 Z" vector-effect="non-scaling-stroke"/></defs><g transform="translate(-0.0826955659297372, -0.09017663730622387)"><path d="M23.83714282675946 0.3607081842918412 C23.506339712749543 -5.450223152358602e-7 22.96880480963915 -5.450223152358602e-7 22.63803394707839 0.3607081842918412 C22.63803394707839 0.3607081842918412 12.094293434115132 11.880854834606106 12.094293434115132 11.880854834606106 C12.094293434115132 11.880854834606106 1.529876517096912 0.3607081842918412 1.529876517096912 0.3607081842918412 C1.1990927539564895 -5.450223152358602e-7 0.6615675262808451 -5.450223152358602e-7 0.33078376314042257 0.3607081842918412 C-4.998071579195419e-7 0.7214163685836824 -4.998071579195419e-7 1.3075689265120811 0.33078376314042257 1.6682771108039223 C0.33078376314042257 1.6682771108039223 11.47406581536455 13.819656049812282 11.47406581536455 13.819656049812282 C11.639451246644931 14.000003108141573 11.846215287194564 14.090176637306223 12.073620255205084 14.090176637306223 C12.280352044305562 14.090176637306223 12.50775701231608 14.000003108141573 12.673174695045617 13.819656049812282 C12.673174695045617 13.819656049812282 23.81646964784941 1.6682771108039223 23.81646964784941 1.6682771108039223 C24.167913689320223 1.3075689265120811 24.167913689320223 0.7214163685836824 23.83714282675946 0.3607081842918412 Z" style="stroke-width: 0; stroke-linecap: butt; stroke-linejoin: miter; fill: rgb(157, 169, 180);" vector-effect="non-scaling-stroke"/></g></g></svg>