<svg version="1.2" xmlns="http://www.w3.org/2000/svg" xmlns:xlink="http://www.w3.org/1999/xlink" overflow="visible" preserveAspectRatio="none" viewBox="0 0 16.000005686682783 16.00000215749203" width="16.000005686682783" height="16.00000215749203"><g transform="translate(0, 0)"><g transform="translate(0.000005686682778511825, -0.000003946013432475439) rotate(0)"><path d="M0.83774,0.00001c-0.21113,-0.00082 -0.41403,0.08169 -0.56449,0.22954c-0.15046,0.14784 -0.2363,0.34905 -0.23879,0.55978l-0.03441,4.02144c-0.00124,0.10489 0.01824,0.20899 0.05731,0.30636c0.03907,0.09737 0.09697,0.1861 0.17041,0.26115c0.07343,0.07504 0.16095,0.13491 0.25756,0.17617c0.09661,0.04127 0.20042,0.06314 0.3055,0.06435c0.10573,0.00125 0.21066,-0.01844 0.30873,-0.05793c0.09806,-0.03949 0.18731,-0.09799 0.26259,-0.17211c0.07528,-0.07412 0.13508,-0.16239 0.17597,-0.25973c0.04089,-0.09734 0.06204,-0.2018 0.06224,-0.30734l0.02969,-3.22433h12.76965v12.7819l-3.20688,0.02339c-0.21139,0.00207 -0.41338,0.08754 -0.56184,0.23778c-0.14846,0.15024 -0.23133,0.35302 -0.23048,0.56402c0.0004,0.10489 0.02151,0.20866 0.06209,0.30541c0.0406,0.09674 0.09988,0.18457 0.17448,0.25844c0.07459,0.07387 0.16302,0.13236 0.26027,0.17211c0.09723,0.03975 0.20135,0.06 0.30643,0.05959l3.9992,-0.02963c0.21112,-0.00084 0.41336,-0.08493 0.56265,-0.23395c0.14929,-0.14901 0.23354,-0.35087 0.23438,-0.56161v-14.37925c-0.00084,-0.21181 -0.08596,-0.41462 -0.23659,-0.56381c-0.15065,-0.14919 -0.35448,-0.23255 -0.56668,-0.23174zM2.43805,7.18807c-0.10522,-0.0004 -0.20947,0.0199 -0.30682,0.05975c-0.09734,0.03985 -0.18583,0.09849 -0.26046,0.17251c-0.0746,0.07405 -0.13386,0.16205 -0.17435,0.25898c-0.0405,0.09691 -0.06145,0.20086 -0.06166,0.30587c-0.00041,0.10541 0.02009,0.20985 0.06031,0.30732c0.04022,0.09745 0.09937,0.18601 0.17404,0.26055c0.07466,0.07453 0.16338,0.13358 0.26104,0.17372c0.09765,0.04016 0.20227,0.06061 0.30789,0.06021h3.65069l-5.8183,5.82469c-0.14907,0.14965 -0.23273,0.3521 -0.23273,0.56314c0,0.21102 0.08367,0.41348 0.23273,0.56312c0.0771,0.07748 0.16931,0.13837 0.27091,0.17888c0.10161,0.04052 0.21045,0.0598 0.31982,0.05666c0.20481,-0.00611 0.39947,-0.09042 0.54385,-0.23554l5.83549,-5.83563v3.67202c-0.00042,0.10489 0.01988,0.20884 0.0597,0.30589c0.03983,0.09705 0.09844,0.18534 0.17245,0.25979c0.07401,0.07445 0.16198,0.13364 0.2589,0.17414c0.09692,0.04052 0.20089,0.06159 0.30597,0.06199c0.1056,0.0004 0.21024,-0.02005 0.30789,-0.06019c0.09765,-0.04016 0.18635,-0.0992 0.26102,-0.17374c0.07468,-0.07453 0.13385,-0.16308 0.17406,-0.26055c0.04023,-0.09747 0.06072,-0.2019 0.0603,-0.30732v-5.58915c-0.00021,-0.105 -0.02118,-0.20893 -0.06168,-0.30587c-0.0405,-0.09691 -0.09974,-0.18492 -0.17435,-0.25894c-0.07463,-0.07405 -0.16312,-0.13266 -0.26044,-0.17253c-0.09734,-0.03985 -0.2016,-0.06017 -0.3068,-0.05977z" style="stroke-width: 0; stroke-linecap: butt; stroke-linejoin: miter; fill: rgb(157, 169, 180);" vector-effect="non-scaling-stroke"/></g><defs><path id="path-16113717725944559" d="M0.83774,0.00001c-0.21113,-0.00082 -0.41403,0.08169 -0.56449,0.22954c-0.15046,0.14784 -0.2363,0.34905 -0.23879,0.55978l-0.03441,4.02144c-0.00124,0.10489 0.01824,0.20899 0.05731,0.30636c0.03907,0.09737 0.09697,0.1861 0.17041,0.26115c0.07343,0.07504 0.16095,0.13491 0.25756,0.17617c0.09661,0.04127 0.20042,0.06314 0.3055,0.06435c0.10573,0.00125 0.21066,-0.01844 0.30873,-0.05793c0.09806,-0.03949 0.18731,-0.09799 0.26259,-0.17211c0.07528,-0.07412 0.13508,-0.16239 0.17597,-0.25973c0.04089,-0.09734 0.06204,-0.2018 0.06224,-0.30734l0.02969,-3.22433h12.76965v12.7819l-3.20688,0.02339c-0.21139,0.00207 -0.41338,0.08754 -0.56184,0.23778c-0.14846,0.15024 -0.23133,0.35302 -0.23048,0.56402c0.0004,0.10489 0.02151,0.20866 0.06209,0.30541c0.0406,0.09674 0.09988,0.18457 0.17448,0.25844c0.07459,0.07387 0.16302,0.13236 0.26027,0.17211c0.09723,0.03975 0.20135,0.06 0.30643,0.05959l3.9992,-0.02963c0.21112,-0.00084 0.41336,-0.08493 0.56265,-0.23395c0.14929,-0.14901 0.23354,-0.35087 0.23438,-0.56161v-14.37925c-0.00084,-0.21181 -0.08596,-0.41462 -0.23659,-0.56381c-0.15065,-0.14919 -0.35448,-0.23255 -0.56668,-0.23174zM2.43805,7.18807c-0.10522,-0.0004 -0.20947,0.0199 -0.30682,0.05975c-0.09734,0.03985 -0.18583,0.09849 -0.26046,0.17251c-0.0746,0.07405 -0.13386,0.16205 -0.17435,0.25898c-0.0405,0.09691 -0.06145,0.20086 -0.06166,0.30587c-0.00041,0.10541 0.02009,0.20985 0.06031,0.30732c0.04022,0.09745 0.09937,0.18601 0.17404,0.26055c0.07466,0.07453 0.16338,0.13358 0.26104,0.17372c0.09765,0.04016 0.20227,0.06061 0.30789,0.06021h3.65069l-5.8183,5.82469c-0.14907,0.14965 -0.23273,0.3521 -0.23273,0.56314c0,0.21102 0.08367,0.41348 0.23273,0.56312c0.0771,0.07748 0.16931,0.13837 0.27091,0.17888c0.10161,0.04052 0.21045,0.0598 0.31982,0.05666c0.20481,-0.00611 0.39947,-0.09042 0.54385,-0.23554l5.83549,-5.83563v3.67202c-0.00042,0.10489 0.01988,0.20884 0.0597,0.30589c0.03983,0.09705 0.09844,0.18534 0.17245,0.25979c0.07401,0.07445 0.16198,0.13364 0.2589,0.17414c0.09692,0.04052 0.20089,0.06159 0.30597,0.06199c0.1056,0.0004 0.21024,-0.02005 0.30789,-0.06019c0.09765,-0.04016 0.18635,-0.0992 0.26102,-0.17374c0.07468,-0.07453 0.13385,-0.16308 0.17406,-0.26055c0.04023,-0.09747 0.06072,-0.2019 0.0603,-0.30732v-5.58915c-0.00021,-0.105 -0.02118,-0.20893 -0.06168,-0.30587c-0.0405,-0.09691 -0.09974,-0.18492 -0.17435,-0.25894c-0.07463,-0.07405 -0.16312,-0.13266 -0.26044,-0.17253c-0.09734,-0.03985 -0.2016,-0.06017 -0.3068,-0.05977z" vector-effect="non-scaling-stroke"/></defs></g></svg>